<?xml version="1.0" encoding="utf-8"?>
<!-- Generator: Adobe Illustrator 27.5.0, SVG Export Plug-In . SVG Version: 6.00 Build 0)  -->
<svg version="1.1" id="PRINT" xmlns="http://www.w3.org/2000/svg" xmlns:xlink="http://www.w3.org/1999/xlink" x="0px" y="0px"
	 viewBox="0 0 595.276 841.89" style="enable-background:new 0 0 595.276 841.89;" xml:space="preserve">
<rect x="-8.504" y="-8.504" style="fill:#9ACCE5;" width="612.283" height="858.898"/>
<g>
	
		<rect x="-58.086" y="143.074" transform="matrix(-1.836970e-16 1 -1 -1.836970e-16 695.8565 100.58)" style="fill:#FFFFFF;" width="711.448" height="510.288"/>
	<g>
		<path style="fill:#261717;" d="M509.142,484.489H85.961c-0.4,0-0.724-0.324-0.724-0.724s0.324-0.724,0.724-0.724h423.182
			c0.4,0,0.724,0.324,0.724,0.724S509.542,484.489,509.142,484.489z"/>
		<path style="fill:#261717;" d="M509.142,523.12H85.961c-0.4,0-0.724-0.324-0.724-0.724s0.324-0.724,0.724-0.724h423.182
			c0.4,0,0.724,0.324,0.724,0.724S509.542,523.12,509.142,523.12z"/>
		<path style="fill:#261717;" d="M509.142,445.858H85.961c-0.4,0-0.724-0.324-0.724-0.724s0.324-0.724,0.724-0.724h423.182
			c0.4,0,0.724,0.324,0.724,0.724S509.542,445.858,509.142,445.858z"/>
		<path style="fill:#261717;" d="M509.142,407.227H85.961c-0.4,0-0.724-0.324-0.724-0.724s0.324-0.724,0.724-0.724h423.182
			c0.4,0,0.724,0.324,0.724,0.724S509.542,407.227,509.142,407.227z"/>
		<path style="fill:#261717;" d="M509.142,368.595H85.961c-0.4,0-0.724-0.324-0.724-0.724c0-0.4,0.324-0.724,0.724-0.724h423.182
			c0.4,0,0.724,0.325,0.724,0.724C509.867,368.271,509.542,368.595,509.142,368.595z"/>
		<path style="fill:#261717;" d="M509.142,329.964H85.961c-0.4,0-0.724-0.324-0.724-0.724s0.324-0.724,0.724-0.724h423.182
			c0.4,0,0.724,0.324,0.724,0.724S509.542,329.964,509.142,329.964z"/>
		<path style="fill:#261717;" d="M509.142,291.333H85.961c-0.4,0-0.724-0.324-0.724-0.724s0.324-0.724,0.724-0.724h423.182
			c0.4,0,0.724,0.324,0.724,0.724S509.542,291.333,509.142,291.333z"/>
		<path style="fill:#261717;" d="M509.142,252.702H85.961c-0.4,0-0.724-0.324-0.724-0.724s0.324-0.724,0.724-0.724h423.182
			c0.4,0,0.724,0.324,0.724,0.724S509.542,252.702,509.142,252.702z"/>
		<path style="fill:#261717;" d="M509.142,214.071H85.961c-0.4,0-0.724-0.325-0.724-0.724c0-0.4,0.324-0.724,0.724-0.724h423.182
			c0.4,0,0.724,0.324,0.724,0.724C509.867,213.747,509.542,214.071,509.142,214.071z"/>
		<path style="fill:#261717;" d="M509.142,561.751H85.961c-0.4,0-0.724-0.325-0.724-0.724s0.324-0.724,0.724-0.724h423.182
			c0.4,0,0.724,0.324,0.724,0.724S509.542,561.751,509.142,561.751z"/>
		<path style="fill:#261717;" d="M509.142,600.382H85.961c-0.4,0-0.724-0.324-0.724-0.724c0-0.4,0.324-0.724,0.724-0.724h423.182
			c0.4,0,0.724,0.324,0.724,0.724C509.867,600.057,509.542,600.382,509.142,600.382z"/>
		<path style="fill:#261717;" d="M509.142,639.013H85.961c-0.4,0-0.724-0.324-0.724-0.724s0.324-0.724,0.724-0.724h423.182
			c0.4,0,0.724,0.324,0.724,0.724S509.542,639.013,509.142,639.013z"/>
		<path style="fill:#261717;" d="M509.142,677.644H85.961c-0.4,0-0.724-0.324-0.724-0.724s0.324-0.724,0.724-0.724h423.182
			c0.4,0,0.724,0.324,0.724,0.724S509.542,677.644,509.142,677.644z"/>
	</g>
	<g>
		<path style="fill:#FFFFFF;" d="M65.238,558.875c-2.499-0.339-5.102-0.511-7.736-0.511c-4.896,0-9.92,0.619-15.008,1.731v153.885
			c14.112,1.428,27.731,2.093,39.588,2.093c0.002,0,0.002,0,0.002,0c23.411,0,54.976-2.343,72.397-13.5
			c5.929-3.797,15.098-13.687,9.895-37.263C155.955,627.159,112.122,565.249,65.238,558.875z"/>
		<path style="fill:#FFFFFF;" d="M552.782,658.435c-2.65,1.307-4.413,3.077-5.419,4.393c-1.694-6.56-4.946-12.51-9.488-17.148
			c-5.28-5.391-11.863-8.483-18.061-8.483c-4.361,0-8.326,1.458-11.463,4.216c-4.45,3.912-5.7,8.217-5.923,11.303
			c-3.659-1.618-7.711-2.467-11.984-2.467c-11.523,0-23.016,6.198-27.945,15.074c-3.578,6.443-3.467,13.615,0.307,19.678
			c3.426,5.506,9.228,8.664,15.919,8.664c5.347,0,11.038-2.052,16.448-4.995c2.91,7.076,10.42,11.523,19.819,11.523
			c1.402,0,2.886-0.106,4.427-0.33c0.392,0.764,0.841,1.515,1.341,2.249c2.843,4.165,7.092,7.498,12.155,9.716
			c-1.811,4.929-1.247,10.644,1.673,15.841c2.935,5.221,7.74,9.458,13.587,12.274c-0.521,0.745-0.998,1.545-1.432,2.396
			c-1.83,3.599-2.253,7.621-1.351,11.605h7.389V658.435z"/>
	</g>
</g>
<g>
	<defs>
		<path id="SVGID_1_" d="M603.779,850.394H-8.504V-8.504h612.283V850.394z"/>
	</defs>
	<clipPath id="SVGID_00000148638983471255333970000003623917553681800077_">
		<use xlink:href="#SVGID_1_"  style="overflow:visible;"/>
	</clipPath>
	<path style="clip-path:url(#SVGID_00000148638983471255333970000003623917553681800077_);fill:#2D6649;" d="M203.112,818.754
		c-3.078-12.495-2.354-23.389-2.354-23.389c8.594,6.803,11.891,9.445,11.891,9.445c-0.664-25.171,8.933-38.661,8.933-38.661
		c6.7,13.038,2.158,19.513,3.712,33.246c9.235-11.091,15.381-11.091,15.381-11.091c2.546,7.181,1.693,11.091,1.693,11.091
		c7.101-14.292,26.103-27.771,26.103-27.771c-2.644,17.462-6.447,22.291-8.699,39.006c8.62-9.441,15.118-11.389,15.118-11.389
		c0.748,8.708,3.099,12.008,3.099,12.008s8.691-10.442,15.844-8.984c7.154,1.458,23.723,18.389,23.723,18.389l-68.449,3.742
		L203.112,818.754z"/>
	<g style="clip-path:url(#SVGID_00000148638983471255333970000003623917553681800077_);">
		<g>
			<path style="fill:#F5D68E;" d="M53.659,794.795l-38.631-0.181c0.015-3.344,0.617-82.977,21.86-178.084l37.703,8.42
				C54.3,715.786,53.662,794.016,53.659,794.795z"/>
			<g>
				<path style="fill:#261717;" d="M22.572,768.504c-0.013,0-0.026,0-0.04-0.002c-0.4-0.021-0.705-0.362-0.683-0.762
					c0.023-0.426,2.477-43.177,12.87-92.102c0.083-0.39,0.458-0.634,0.86-0.558c0.39,0.083,0.641,0.468,0.558,0.86
					c-10.371,48.81-12.819,91.454-12.844,91.879C23.274,768.206,22.955,768.504,22.572,768.504z"/>
				<path style="fill:#261717;" d="M34.148,745.329c-0.019,0-0.04,0-0.06-0.002c-0.4-0.034-0.694-0.385-0.662-0.783
					c1.332-15.752,4.682-47.447,12.18-82.744c0.083-0.391,0.458-0.634,0.86-0.558c0.39,0.083,0.641,0.468,0.558,0.86
					c-7.483,35.219-10.827,66.846-12.153,82.563C34.839,745.045,34.522,745.329,34.148,745.329z"/>
				<path style="fill:#261717;" d="M44.07,766.245c-0.013,0-0.026,0-0.04-0.002c-0.4-0.021-0.706-0.362-0.683-0.762
					c0.008-0.162,0.936-16.548,4.065-40.376c0.055-0.394,0.407-0.671,0.813-0.624c0.396,0.053,0.675,0.417,0.624,0.813
					c-3.124,23.769-4.048,40.104-4.057,40.267C44.772,765.946,44.453,766.245,44.07,766.245z"/>
			</g>
			<path style="fill:#261717;" d="M74.591,624.95l-37.703-8.42c-7.148,32.001-11.956,62.243-15.194,88.424
				c13.247,3.901,28.375,5.007,38.327,5.266C63.123,684.903,67.733,655.649,74.591,624.95z"/>
		</g>
		<g>
			<path style="fill:#CC5452;" d="M63.679,570.36c-50.341-6.842-127.626,74.69-121.852,93.84
				c11.029,36.579,167.919,53.261,206.406,28.615C173.053,676.92,117.809,577.717,63.679,570.36z"/>
			<g>
				<path style="fill:#EDB545;" d="M154.011,682.833c-10.729-7.815-27.301-12.038-33.713-9.338
					c-6.881,2.897-20.04,15.332-17.384,23.782c0.712,2.266,2.162,4.34,3.889,6.176c17.847-1.586,32.694-5.044,41.43-10.639
					C151.443,690.758,153.304,687.299,154.011,682.833z"/>
				<path style="fill:#EDB545;" d="M110.898,597.449c-13.742-13.614-29.456-23.956-45.166-26.756
					c-9.576,7.154-13.765,22.068-7.487,28.965c6.883,7.561,13.523,1.163,22.215-1.131C88.894,596.301,91.76,606.237,110.898,597.449
					z"/>
				<path style="fill:#EDB545;" d="M70.107,661.122c-3.806,4.446-15.074,12.133-24.378,0c-9.304-12.133,0.022-24.277,11.612-27.485
					c11.589-3.208,29.924,5.665,31.605,11.954c2.304,8.618-7.883,10.732-11.052,10.551
					C74.725,655.961,71.568,659.414,70.107,661.122z"/>
				<path style="fill:#EDB545;" d="M7.362,665.286c-7.847-7.49-28.849-0.945-24.12,25.651c6.595,2.032,13.727,3.852,21.2,5.455
					C5.143,684.833,14.702,672.293,7.362,665.286z"/>
				<path style="fill:#EDB545;" d="M-49.611,641.888c8.33,7.2,21.031,1.211,22.024-4.066c1.095-5.819,11.65-0.287,19.014-8.934
					c6.367-7.475,8.042-20.831-2.482-27.468C-27.167,614.472-41.093,629.437-49.611,641.888z"/>
			</g>
			<g>
				<path style="fill:#261717;" d="M82.518,705.284c-37.445,0-80.597-6.364-108.798-16.792
					c-18.648-6.896-29.916-15.224-32.587-24.082c-0.116-0.383,0.101-0.787,0.484-0.904c0.387-0.115,0.787,0.102,0.903,0.485
					c2.535,8.407,13.498,16.411,31.704,23.143c49.185,18.188,144.023,24.022,173.619,5.072c0.336-0.213,0.785-0.121,1,0.219
					c0.217,0.338,0.119,0.785-0.219,1C135.766,701.658,110.763,705.284,82.518,705.284z"/>
				<path style="fill:#261717;" d="M65.472,603.96c-2.611,0-5.187-0.985-7.764-3.816c-2.641-2.901-3.682-7.289-2.929-12.351
					c0.06-0.394,0.407-0.683,0.822-0.611c0.396,0.059,0.67,0.428,0.611,0.823c-0.688,4.625,0.224,8.592,2.567,11.167
					c4.748,5.214,9.267,3.356,14.99,0.994c2.062-0.849,4.193-1.728,6.504-2.337c0.396-0.104,0.785,0.13,0.885,0.515
					c0.102,0.387-0.128,0.783-0.515,0.885c-2.216,0.585-4.305,1.445-6.323,2.279C71.299,602.751,68.364,603.96,65.472,603.96z"/>
				<path style="fill:#261717;" d="M57.502,581.898c-0.1,0-0.2-0.021-0.296-0.064c-0.366-0.164-0.528-0.592-0.364-0.956
					c1.192-2.66,2.754-5.089,4.637-7.224c0.264-0.3,0.724-0.326,1.022-0.064c0.3,0.264,0.328,0.722,0.064,1.022
					c-1.762,1.997-3.284,4.369-4.403,6.858C58.042,581.74,57.778,581.898,57.502,581.898z"/>
				<path style="fill:#261717;" d="M57.193,668.367c-0.119,0.002-0.236,0-0.353-0.004c-4.384-0.117-8.317-2.405-11.687-6.8
					c-0.243-0.319-0.183-0.773,0.134-1.017c0.319-0.238,0.771-0.183,1.017,0.134c3.092,4.033,6.649,6.13,10.575,6.234
					c5.664,0.206,10.625-3.865,12.678-6.264c1.152-1.347,4.667-5.448,8.379-5.231c2.118,0.096,6.994-0.838,9.305-3.673
					c1.3-1.596,1.637-3.605,1.005-5.97c-0.104-0.387,0.126-0.783,0.513-0.887c0.387-0.102,0.783,0.126,0.886,0.513
					c0.76,2.839,0.328,5.282-1.281,7.258c-2.797,3.437-8.409,4.322-10.512,4.203c-2.028-0.136-4.414,1.479-7.194,4.729
					C67.958,664.747,62.842,668.367,57.193,668.367z"/>
			</g>
		</g>
	</g>
	<g style="clip-path:url(#SVGID_00000148638983471255333970000003623917553681800077_);">
		<path style="fill:#EDB545;" d="M-172.454,855.544h946.702c0,0-78.978-36.678-136.174-39.043
			c-60.093-2.485-129.651,5.65-150.227,0.478c-40.708-10.233-156.133,1.432-206.503,2.236
			c-97.909,1.561-157.741-23.297-195.383-36.914c-35.139-12.711-141.797,1.637-182.722,10.036
			C-137.686,800.737-172.454,855.544-172.454,855.544z"/>
		<path style="fill:#261717;" d="M-96.762,793.062c-0.337,0-0.639-0.236-0.708-0.579c-0.081-0.392,0.172-0.775,0.564-0.855
			c45.426-9.322,149.16-22.286,183.115-10.009c0.375,0.136,0.57,0.551,0.434,0.928c-0.136,0.375-0.543,0.573-0.928,0.434
			c-33.68-12.185-137.038,0.771-182.33,10.065C-96.665,793.058-96.714,793.062-96.762,793.062z"/>
	</g>
	<g style="clip-path:url(#SVGID_00000148638983471255333970000003623917553681800077_);">
		<path style="fill:#261717;" d="M106.414,878.482c-0.008,0-0.017,0-0.026,0c-0.4-0.015-0.711-0.351-0.698-0.751
			c0.939-26.019,9.184-42.694,16.458-57.407c5.366-10.854,9.999-20.227,10.586-31.214c0.019-0.4,0.377-0.741,0.76-0.685
			c0.4,0.021,0.707,0.362,0.685,0.76c-0.6,11.288-5.295,20.785-10.733,31.78c-7.208,14.583-15.379,31.109-16.307,56.819
			C107.123,878.175,106.802,878.482,106.414,878.482z"/>
		<path style="fill:#261717;" d="M118.524,830.193c-0.198,0-0.394-0.081-0.538-0.238c-0.268-0.298-0.245-0.755,0.051-1.024
			c0.658-0.594,16.307-14.604,32.306-16.239c0.391-0.032,0.755,0.249,0.794,0.647c0.042,0.398-0.249,0.753-0.647,0.794
			c-15.53,1.586-31.324,15.73-31.48,15.873C118.871,830.131,118.697,830.193,118.524,830.193z"/>
		<path style="fill:#261717;" d="M112.895,843.833c-0.241,0-0.479-0.121-0.615-0.343c-4.021-6.491-5.704-12.98-7.055-18.193
			c-1.394-5.374-2.494-9.62-5.419-11.944c-0.313-0.249-0.366-0.706-0.117-1.019c0.251-0.313,0.705-0.364,1.019-0.117
			c3.305,2.626,4.457,7.079,5.919,12.717c1.396,5.385,2.979,11.489,6.883,17.793c0.211,0.339,0.107,0.787-0.234,0.996
			C113.157,843.797,113.025,843.833,112.895,843.833z"/>
		
			<ellipse transform="matrix(0.747 -0.6648 0.6648 0.747 -502.6265 306.0919)" style="fill:#CC5452;" cx="150.84" cy="813.412" rx="9.658" ry="9.658"/>
		
			<ellipse transform="matrix(0.9862 -0.1655 0.1655 0.9862 -128.595 32.9466)" style="fill:#CC5452;" cx="133.456" cy="788.332" rx="9.658" ry="9.658"/>
		<circle style="fill:#CC5452;" cx="98.688" cy="811.25" r="9.658"/>
		<path style="fill:#261717;" d="M152.907,820.973c-0.309,0-0.594-0.2-0.69-0.511c-0.119-0.381,0.096-0.787,0.477-0.905
			c0.196-0.06,4.799-1.566,4.514-7.194c-0.019-0.398,0.289-0.739,0.689-0.76c0.381-0.015,0.737,0.289,0.76,0.689
			c0.34,6.777-5.48,8.633-5.538,8.65C153.048,820.964,152.977,820.973,152.907,820.973z"/>
		<path style="fill:#261717;" d="M132.731,795.848c-0.036,0-0.072-0.002-0.109-0.008c-0.16-0.025-3.967-0.651-6.328-5.182
			c-0.185-0.355-0.047-0.79,0.308-0.977c0.355-0.179,0.792-0.047,0.979,0.307c2.005,3.85,5.133,4.397,5.265,4.42
			c0.392,0.062,0.662,0.434,0.6,0.826C133.389,795.593,133.082,795.848,132.731,795.848z"/>
		<path style="fill:#261717;" d="M93.41,815.939c-0.226,0-0.449-0.106-0.589-0.304c-0.079-0.109-1.907-2.714-1.383-5.915
			c0.064-0.394,0.423-0.658,0.832-0.598c0.394,0.064,0.662,0.438,0.598,0.832c-0.43,2.618,1.115,4.818,1.13,4.84
			c0.234,0.325,0.158,0.777-0.168,1.009C93.704,815.895,93.557,815.939,93.41,815.939z"/>
	</g>
	<path style="clip-path:url(#SVGID_00000148638983471255333970000003623917553681800077_);fill:#2D6649;" d="M-11.531,854.82h56.909
		c-7.051-25.714,5.625-46.571,5.625-46.571c-12.797,3.594-17.746,16.753-17.746,16.753c-1.207-13.762,0.604-28.853,0.604-28.853
		c-14.274,11.589-21.126,30.543-21.126,30.543c-18.591-28.128-33.681-27.296-33.681-27.296c1.69,16.19,8.449,28.018,8.449,28.018
		c-15.331-8.448-20.979-6.491-20.979-6.491C-31.33,838.402-11.531,854.82-11.531,854.82z"/>
	<g style="clip-path:url(#SVGID_00000148638983471255333970000003623917553681800077_);">
		<path style="fill:#2D6649;" d="M550.497,808.606c-4.034,3.345-9.938,9.868-14.191,21.647l4.993-28.381
			c-15.146-9.981-33.245-16.58-54.201-15.342c3.779,9.18,2.634,26.52,2.634,26.52c-6.687-6.399-11.171-19.628-18.345-24.197
			c-11.478,2.766-20.434,7.531-27.402,13.431l11.655,27.607c-8.292-8.222-17.193-14.378-21.374-17.092
			c-18.003,24.864-13.973,58.198-13.973,58.198h177.401C597.693,870.997,581.547,833.676,550.497,808.606z"/>
		<g>
			<path style="fill:#261717;" d="M502.697,869.722c-0.117,0-0.234-0.028-0.343-0.087c-0.392-0.209-39.701-21.241-71.701-33.697
				c-0.373-0.145-0.558-0.566-0.413-0.937c0.145-0.372,0.568-0.562,0.938-0.413c27.804,10.822,61.089,28.089,69.732,32.642
				c-4.64-8.473-22.562-40.823-40.359-67.906c-0.219-0.334-0.126-0.783,0.207-1.004c0.332-0.221,0.781-0.126,1.004,0.208
				c20.604,31.354,41.366,69.742,41.574,70.126c0.151,0.281,0.102,0.628-0.125,0.854
				C503.071,869.649,502.886,869.722,502.697,869.722z"/>
			<path style="fill:#261717;" d="M502.697,869.722c-0.177,0-0.351-0.066-0.487-0.189c-0.194-0.175-0.277-0.441-0.219-0.696
				c0.087-0.387,8.815-39.052,11.137-69.966c0.03-0.396,0.34-0.728,0.777-0.668c0.398,0.03,0.698,0.377,0.668,0.777
				c-2.096,27.879-9.375,62.013-10.891,68.927c50.207-16.811,65.058-34.232,65.203-34.408c0.255-0.311,0.711-0.351,1.021-0.096
				c0.307,0.257,0.351,0.713,0.096,1.021c-0.609,0.736-15.501,18.197-67.076,35.262C502.85,869.711,502.773,869.722,502.697,869.722
				z"/>
		</g>
	</g>
	<g style="clip-path:url(#SVGID_00000148638983471255333970000003623917553681800077_);">
		<path style="fill:#739E47;" d="M509.143,722.267c-9.658,8.692-6.035,40.901-4.435,56.239c1.574,15.086,2.896,24.887,6.976,39.578
			c3.405,12.263,7.988,25.396,13.709,38.913c5.722,13.517,2.259,34.424,16.888,58.546c29.396,48.47,87.825,61.689,87.825,61.689
			c17.565-58.43,14.97-93.439-2.656-120.722c-17.625-27.283-16.66-35.342-27.525-48.576c-10.865-13.234-19.26-14.238-35.009-36.309
			C547.895,747.77,526.708,726.945,509.143,722.267z"/>
		<g>
			<path style="fill:#261717;" d="M630.106,977.957c-0.336,0-0.636-0.232-0.707-0.573c-8.752-40.836-38.648-95.223-67.559-147.82
				c-19.065-34.683-37.073-67.444-48.659-95.429c-0.153-0.37,0.023-0.794,0.392-0.947c0.37-0.155,0.794,0.023,0.947,0.392
				c11.554,27.913,29.543,60.638,48.589,95.286c28.962,52.688,58.91,107.171,67.704,148.216c0.085,0.39-0.164,0.775-0.556,0.858
				C630.206,977.951,630.155,977.957,630.106,977.957z"/>
			<path style="fill:#261717;" d="M537.58,783.987c-0.185,0-0.364-0.07-0.502-0.202c-9.392-9.03-29.93-17.303-30.137-17.384
				c-0.37-0.149-0.551-0.572-0.404-0.943c0.149-0.372,0.573-0.543,0.943-0.404c0.822,0.33,19.587,7.888,29.532,16.699
				c0.519-4.595,2.364-18.965,6.048-27.891c0.153-0.372,0.585-0.545,0.945-0.394c0.372,0.153,0.547,0.575,0.394,0.945
				c-4.255,10.312-6.08,28.734-6.098,28.919c-0.026,0.277-0.209,0.513-0.47,0.609C537.75,783.972,537.665,783.987,537.58,783.987z"
				/>
			<path style="fill:#261717;" d="M559.393,824.331c-0.189,0-0.373-0.074-0.511-0.211c-15.82-15.784-40.638-16.643-40.887-16.648
				c-0.4-0.011-0.715-0.345-0.704-0.745c0.011-0.392,0.334-0.704,0.724-0.704c0.006,0,0.013,0,0.021,0
				c0.249,0.008,24.661,0.853,40.906,16.139c1.041-5.1,5.153-23.846,11.378-34.996c0.196-0.351,0.643-0.47,0.985-0.279
				c0.349,0.194,0.475,0.636,0.279,0.985c-7.102,12.723-11.437,35.639-11.48,35.87c-0.049,0.262-0.24,0.479-0.496,0.558
				C559.536,824.319,559.465,824.331,559.393,824.331z"/>
			<path style="fill:#261717;" d="M584.124,869.722c-0.147,0-0.292-0.043-0.415-0.132c-27.012-18.927-52.535-23.909-52.789-23.958
				c-0.394-0.073-0.653-0.453-0.577-0.845c0.072-0.394,0.441-0.658,0.845-0.577c0.255,0.047,25.431,4.951,52.331,23.486
				c0.643-6.442,4.003-35.422,13.568-50.011c0.221-0.336,0.672-0.428,1.004-0.208c0.334,0.219,0.426,0.668,0.207,1.004
				c-10.369,15.815-13.423,50.232-13.451,50.579c-0.023,0.258-0.181,0.485-0.415,0.594
				C584.333,869.7,584.228,869.722,584.124,869.722z"/>
			<path style="fill:#261717;" d="M608.201,917.547c-0.16,0-0.319-0.053-0.449-0.155c-30.686-24.165-63.79-28.971-64.122-29.019
				c-0.396-0.055-0.672-0.419-0.617-0.817c0.055-0.394,0.434-0.681,0.815-0.617c0.332,0.045,33.04,4.784,63.741,28.472
				c0.475-6.223,3.12-32.337,15.137-54.896c0.187-0.351,0.623-0.489,0.981-0.298c0.353,0.189,0.487,0.626,0.298,0.981
				c-13.528,25.395-15.047,55.359-15.06,55.659c-0.013,0.27-0.175,0.511-0.423,0.624
				C608.406,917.526,608.302,917.547,608.201,917.547z"/>
		</g>
	</g>
	<g style="clip-path:url(#SVGID_00000148638983471255333970000003623917553681800077_);">
		<path style="fill:#739E47;" d="M365.725,748.584c-11.952-0.018-13.979,19.491-15.212,28.678
			c-1.389,10.353-7.544,12.006-13.901,13.72c-5.022,1.354-5.384,10.568,1.835,15.069c5.958,3.715,15.689,6.455,16.866,13.789
			c1.177,7.334-8.873,9.326-12.947,11.318c-4.074,1.992-5.075,7.672,2.263,17.475c12.404,16.569,44.546,31.327,44.546,31.327
			c16.388-24.808,17.056-36.579,11.108-42.826c-5.947-6.247-11.507-0.922-17.174-4.256c-3.078-1.811-1.125-7.073,3.032-16.378
			c5.216-11.672,3.13-20.018-4.297-18.163c-7.427,1.855-13.041,6.201-11.502-11.183
			C371.882,769.771,378.975,748.605,365.725,748.584z"/>
		<g>
			<path style="fill:#261717;" d="M389.175,880.685c-0.275,0-0.539-0.158-0.66-0.426c-24.09-53.406-32.486-92.979-25.667-120.98
				c0.096-0.389,0.483-0.634,0.875-0.532c0.389,0.094,0.626,0.487,0.532,0.875c-6.74,27.675,1.628,66.94,25.58,120.041
				c0.164,0.364,0.002,0.794-0.362,0.958C389.377,880.664,389.275,880.685,389.175,880.685z"/>
			<path style="fill:#261717;" d="M364.004,807.015c-0.058,0-0.121-0.008-0.181-0.023c-0.125-0.032-12.604-3.284-22.351-8.635
				c-0.351-0.194-0.479-0.634-0.287-0.985c0.194-0.351,0.634-0.477,0.985-0.287c9.582,5.263,21.892,8.471,22.015,8.503
				c0.387,0.1,0.621,0.496,0.521,0.883C364.621,806.798,364.327,807.015,364.004,807.015z"/>
			<path style="fill:#261717;" d="M369.161,828.135c-0.172,0-0.345-0.062-0.485-0.185c-0.296-0.268-0.321-0.726-0.055-1.024
				c0.06-0.066,6.074-6.857,12.023-21.334c0.153-0.37,0.579-0.549,0.945-0.394c0.37,0.151,0.547,0.575,0.394,0.945
				c-6.055,14.736-12.033,21.473-12.285,21.753C369.558,828.054,369.36,828.135,369.161,828.135z"/>
			<path style="fill:#261717;" d="M376.016,848.782c-0.03,0-0.062-0.002-0.094-0.006c-0.121-0.017-12.302-1.664-27.534-8.998
				c-0.36-0.174-0.511-0.607-0.338-0.968c0.173-0.36,0.605-0.511,0.968-0.338c15.022,7.234,26.974,8.85,27.093,8.865
				c0.396,0.053,0.675,0.415,0.624,0.813C376.688,848.517,376.377,848.782,376.016,848.782z"/>
			<path style="fill:#261717;" d="M383.365,867.372c-0.175,0-0.351-0.064-0.49-0.192c-0.294-0.27-0.313-0.728-0.042-1.022
				c0.053-0.059,5.338-5.934,10.997-22.796c0.126-0.379,0.539-0.59,0.917-0.456c0.379,0.126,0.585,0.538,0.456,0.917
				c-5.778,17.214-11.084,23.077-11.306,23.318C383.754,867.293,383.559,867.372,383.365,867.372z"/>
		</g>
	</g>
	<g style="clip-path:url(#SVGID_00000148638983471255333970000003623917553681800077_);">
		<path style="fill:#261717;" d="M621.173,785.768c-0.032,0-0.068-0.002-0.102-0.008c-30.871-4.378-40.989-31.537-50.773-57.801
			c-12.023-32.276-24.454-65.658-75.536-58.092c-0.413,0.062-0.764-0.217-0.822-0.611c-0.059-0.396,0.215-0.764,0.611-0.822
			c52.22-7.717,64.881,26.201,77.106,59.018c10.08,27.059,19.6,52.618,49.619,56.875c0.396,0.057,0.672,0.422,0.615,0.819
			C621.838,785.507,621.529,785.768,621.173,785.768z"/>
		<path style="fill:#2D6649;" d="M586.423,761.864c-18.565,5.689-32.961-7.168-29.349-14.274
			C562.896,736.139,576.596,761.306,586.423,761.864z"/>
		<path style="fill:#2D6649;" d="M586.417,761.864c14.886-12.467,11.949-31.544,4.023-32.387
			C577.666,728.119,591.303,753.319,586.417,761.864z"/>
		<path style="fill:#2D6649;" d="M572.382,731.435c-18.944,4.258-32.319-9.658-28.176-16.468
			C550.883,703.992,562.626,730.13,572.382,731.435z"/>
		<path style="fill:#2D6649;" d="M572.375,731.435c15.793-11.297,14.318-30.542,6.479-31.986
			C566.221,697.121,577.899,723.287,572.375,731.435z"/>
		<path style="fill:#2D6649;" d="M559.83,700.903c-17.928,7.457-33.499-3.948-30.591-11.37
			C533.926,677.573,549.995,701.297,559.83,700.903z"/>
		<path style="fill:#2D6649;" d="M559.823,700.903c13.611-13.847,8.844-32.551,0.873-32.624
			C547.852,668.162,563.861,691.927,559.823,700.903z"/>
		<path style="fill:#2D6649;" d="M537.153,675.003c-10.258,16.486-29.558,16.252-31.503,8.522
			C502.514,671.068,529.377,681.038,537.153,675.003z"/>
		<path style="fill:#2D6649;" d="M537.116,675.003c0.901-19.396-15.127-30.149-21.114-24.886
			C506.355,658.598,534.135,665.622,537.116,675.003z"/>
		<path style="fill:#2D6649;" d="M503.966,668.182c-11.574-14.847-38.304-0.523-31.322,10.695
			C479.626,690.095,503.966,668.182,503.966,668.182z"/>
	</g>
</g>
<g>
	<defs>
		<path id="SVGID_00000127012485820963969610000008329420339103562123_" d="M603.779,850.394H-8.504V-8.504h612.283V850.394z"/>
	</defs>
	<clipPath id="SVGID_00000046301586208173872350000015858285035734706049_">
		<use xlink:href="#SVGID_00000127012485820963969610000008329420339103562123_"  style="overflow:visible;"/>
	</clipPath>
	<g style="clip-path:url(#SVGID_00000046301586208173872350000015858285035734706049_);">
		<g>
			<path style="fill:#739E47;" d="M447.022,137.588c-10.439-14.773-8.31-24.655-6.405-25.944c3.477-2.353,9.127,4.321,9.127,4.321
				s-8.255-16.396-4.612-23.312c2.329-4.421,10.562,3.992,10.562,3.992s-8.352-20.133-0.828-22.799
				c8.648-3.065,10.853,22.402,10.853,22.402s5.518-7.425,7.891-3.809c8.593,13.095-12.857,28.779-12.857,28.779
				s5.254-1.951,6.778,1.852C470.793,131.207,447.022,137.588,447.022,137.588z"/>
			<path style="fill:#261717;" d="M436.434,151.186c-0.202,0-0.404-0.084-0.547-0.249c-0.262-0.302-0.23-0.759,0.072-1.021
				c10.265-8.933,31.05-41.184,21.572-67.991c-0.134-0.377,0.064-0.791,0.441-0.924c0.377-0.137,0.79,0.064,0.924,0.441
				c10.28,29.071-12.857,61.621-21.987,69.566C436.771,151.128,436.604,151.186,436.434,151.186z"/>
		</g>
		<g>
			<path style="fill:#EDB545;" d="M548.551,115.716c-16.139-2.914-32.321,20.355-24.706,25.081
				C530.963,145.216,551.732,120.86,548.551,115.716z"/>
			<path style="fill:#261717;" d="M530.037,133.867c-0.121,0-0.241-0.029-0.353-0.091c-0.349-0.195-0.475-0.637-0.279-0.986
				c8.615-15.427,21.971-18.976,22.535-19.119c0.396-0.096,0.783,0.137,0.881,0.523c0.098,0.388-0.136,0.782-0.523,0.881
				c-0.132,0.034-13.332,3.564-21.63,18.421C530.537,133.734,530.29,133.867,530.037,133.867z"/>
		</g>
		<g>
			<path style="fill:#2D6649;" d="M612.539,66.962c-12.585-10.517-38.159,1.7-33.88,9.575
				C582.66,83.898,612.758,73.006,612.539,66.962z"/>
			<path style="fill:#261717;" d="M587.827,73.673c-0.245,0-0.483-0.125-0.621-0.35c-0.206-0.341-0.096-0.787,0.245-0.994
				c15.122-9.148,28.481-5.622,29.045-5.466c0.385,0.106,0.611,0.504,0.506,0.889c-0.108,0.387-0.507,0.605-0.89,0.507
				c-0.128-0.037-13.344-3.5-27.909,5.309C588.085,73.638,587.955,73.673,587.827,73.673z"/>
		</g>
		<g>
			<path style="fill:#739E47;" d="M547.705,41.661c-3.915-6.604-9.049-8.279-10.222-7.993c-1.856,0.453-1.449,3.169-1.449,3.169
				s-4.391-3.169-6.972-2.309c-2.58,0.86-2.716,5.614-2.716,5.614c-10.865-4.301-13.083,8.239-13.083,8.239
				c12.585,7.741,15.709-0.432,15.709-0.432c2.716,6.091,9.145,0.659,9.145,0.659s0.906,2.665,2.762,2.665
				C546.543,51.273,547.705,41.661,547.705,41.661z"/>
			<path style="fill:#261717;" d="M518.193,46.112c-0.107,0-0.207-0.004-0.302-0.012c-0.398-0.035-0.692-0.387-0.658-0.786
				c0.036-0.397,0.358-0.689,0.787-0.657c0.994,0.084,3.659-0.604,6.73-1.404c8.915-2.327,22.386-5.842,27.221,0.5
				c0.243,0.318,0.183,0.772-0.136,1.016c-0.321,0.24-0.775,0.18-1.015-0.137c-4.255-5.578-17.684-2.071-25.704,0.023
				C521.909,45.491,519.526,46.112,518.193,46.112z"/>
		</g>
		<g>
			<path style="fill:#739E47;" d="M150.328,150.332c9.284-15.525,6.409-25.216,4.411-26.356c-3.646-2.082-8.772,5.004-8.772,5.004
				s6.983-16.977,2.824-23.595c-2.659-4.231-10.228,4.784-10.228,4.784s6.796-20.71-0.91-22.796
				c-8.856-2.398-9.116,23.163-9.116,23.163s-6.068-6.983-8.158-3.198c-7.571,13.712,15.01,27.717,15.01,27.717
				s-5.387-1.546-6.617,2.362C126.141,145.78,150.328,150.332,150.328,150.332z"/>
			<path style="fill:#261717;" d="M161.865,163.087c-0.151,0-0.302-0.046-0.432-0.143c-9.709-7.228-35.255-37.924-27.219-67.689
				c0.104-0.386,0.511-0.616,0.888-0.51c0.387,0.104,0.615,0.502,0.511,0.887c-7.409,27.447,15.769,58.024,26.683,66.15
				c0.321,0.239,0.389,0.692,0.149,1.014C162.304,162.986,162.085,163.087,161.865,163.087z"/>
		</g>
		<g>
			<path style="fill:#2D6649;" d="M41.682,132.213c13.637-9.111,37.758,5.771,32.661,13.143
				C69.579,152.247,40.818,138.199,41.682,132.213z"/>
			<path style="fill:#261717;" d="M65.614,141.531c-0.153,0-0.308-0.048-0.439-0.148c-13.542-10.317-27.046-8.281-27.185-8.263
				c-0.379,0.069-0.764-0.205-0.83-0.599c-0.064-0.395,0.204-0.767,0.598-0.831c0.577-0.094,14.239-2.166,28.296,8.54
				c0.317,0.242,0.379,0.697,0.136,1.015C66.047,141.433,65.83,141.531,65.614,141.531z"/>
		</g>
		<g>
			<path style="fill:#739E47;" d="M-13.423,64.286c10.34-12.73,37.779-5.63,35.085,2.917C19.144,75.194-12.482,70.26-13.423,64.286z
				"/>
			<path style="fill:#261717;" d="M-17.004,66.318c-0.267,0-0.523-0.147-0.65-0.402c-0.178-0.358-0.031-0.793,0.326-0.971
				c0.523-0.258,12.97-6.271,29.553-0.191c0.375,0.138,0.57,0.554,0.432,0.929c-0.138,0.376-0.56,0.57-0.93,0.431
				c-16.007-5.868-28.288,0.068-28.41,0.128C-16.786,66.293-16.896,66.318-17.004,66.318z"/>
		</g>
		<g>
			<path style="fill:#EDB545;" d="M79.82,35.606c7.31-2.347,12.263-0.196,12.952,0.797c1.089,1.57-1.017,3.333-1.017,3.333
				s5.388,0.54,6.749,2.895c1.361,2.355-1.69,6.003-1.69,6.003c10.984,3.986,4.328,14.843,4.328,14.843
				c-14.553-2.552-11.471-10.741-11.471-10.741c-6.072,2.757-7.281-5.572-7.281-5.572s-2.446,1.395-3.835,0.164
				C74.314,43.57,79.82,35.606,79.82,35.606z"/>
			<path style="fill:#261717;" d="M99.621,58.842c-0.151,0-0.302-0.046-0.43-0.142c-1.015-0.751-2.456-2.899-4.448-5.872
				c-4.616-6.888-12.336-18.421-19.225-17.064c-0.4,0.071-0.773-0.181-0.851-0.572c-0.077-0.392,0.179-0.773,0.572-0.851
				c7.813-1.53,15.579,10.027,20.708,17.68c1.766,2.636,3.292,4.913,4.104,5.514c0.323,0.238,0.39,0.691,0.153,1.013
				C100.061,58.74,99.842,58.842,99.621,58.842z"/>
		</g>
	</g>
</g>
<text transform="matrix(1 0 0 1 196.4511 162.1171)" style="fill:#2D6649; font-family:'Coiny-Regular'; font-size:48.2888px;">Wishlist</text>
</svg>
